<svg width="20" height="20" viewBox="0 0 20 20" fill="none" xmlns="http://www.w3.org/2000/svg">
    <path d="M13.5446 6.45414C12.6451 5.55467 11.3753 4.97266 9.9996 4.97266C8.62394 4.97266 7.3541 5.52821 6.45463 6.45414C5.55516 7.35361 4.97314 8.62345 4.97314 9.99911C4.97314 11.3748 5.55516 12.6446 6.45463 13.5441C7.3541 14.4436 8.62394 15.0256 9.9996 15.0256C11.3753 15.0256 12.6451 14.47 13.5446 13.5441C14.444 12.6446 15.0261 11.3748 15.0261 9.99911C15.0261 8.62345 14.4705 7.35361 13.5446 6.45414Z" fill="#858BB2" />
    <path d="M9.99984 3.4127C10.3702 3.4127 10.6877 3.09524 10.6877 2.72487V0.68783C10.6877 0.31746 10.3702 0 9.99984 0C9.62947 0 9.31201 0.31746 9.31201 0.68783V2.72487C9.31201 3.09524 9.62947 3.4127 9.99984 3.4127Z" fill="#858BB2" />
    <path d="M15.6347 5.3441L17.0897 3.88908C17.3543 3.62453 17.3543 3.20124 17.0897 2.93669C16.8252 2.67214 16.4019 2.67214 16.1373 2.93669L14.6823 4.39172C14.4177 4.65627 14.4177 5.07955 14.6823 5.3441C14.9204 5.60865 15.3437 5.60865 15.6347 5.3441Z" fill="#858BB2" />
    <path d="M19.3123 9.3125H17.2752C16.9049 9.3125 16.5874 9.62996 16.5874 10.0003C16.5874 10.3707 16.9049 10.6882 17.2752 10.6882H19.3123C19.6826 10.6882 20.0001 10.3707 20.0001 10.0003C20.0001 9.62996 19.6826 9.3125 19.3123 9.3125Z" fill="#858BB2" />
    <path d="M15.6083 14.6554C15.3438 14.3909 14.9205 14.3909 14.6559 14.6554C14.3914 14.92 14.3914 15.3433 14.6559 15.6078L16.111 17.0628C16.3755 17.3274 16.7988 17.3274 17.0633 17.0628C17.3279 16.7983 17.3279 16.375 17.0633 16.1105L15.6083 14.6554Z" fill="#858BB2" />
    <path d="M9.99984 16.5879C9.62947 16.5879 9.31201 16.9054 9.31201 17.2757V19.3128C9.31201 19.6831 9.62947 20.0006 9.99984 20.0006C10.3702 20.0006 10.6877 19.6831 10.6877 19.3128V17.2757C10.6877 16.9054 10.3702 16.5879 9.99984 16.5879Z" fill="#858BB2" />
    <path d="M4.36486 14.6554L2.90984 16.1105C2.64529 16.375 2.64529 16.7983 2.90984 17.0628C3.17439 17.3274 3.59767 17.3274 3.86222 17.0628L5.31725 15.6078C5.5818 15.3433 5.5818 14.92 5.31725 14.6554C5.07915 14.3909 4.65587 14.3909 4.36486 14.6554Z" fill="#858BB2" />
    <path d="M3.4127 10.0003C3.4127 9.62996 3.09524 9.3125 2.72487 9.3125H0.68783C0.31746 9.3125 0 9.62996 0 10.0003C0 10.3707 0.31746 10.6882 0.68783 10.6882H2.72487C3.09524 10.6882 3.4127 10.3707 3.4127 10.0003Z" fill="#858BB2" />
    <path d="M4.36486 5.3441C4.62942 5.60865 5.0527 5.60865 5.31725 5.3441C5.5818 5.07955 5.5818 4.65627 5.31725 4.39172L3.86222 2.93669C3.59767 2.67214 3.17439 2.67214 2.90984 2.93669C2.64529 3.20124 2.64529 3.62453 2.90984 3.88908L4.36486 5.3441Z" fill="#858BB2" />
</svg>
